HIERARCHY
ROOT Hips
{
	OFFSET 0.000000 0.000000 0.000000
	CHANNELS 6 Xposition Yposition Zposition Xrotation Yrotation Zrotation
	JOINT Thigh.L
	{
		OFFSET 0.054102 0.027057 -0.093248
		CHANNELS 3 Xrotation Yrotation Zrotation
		JOINT Shin.L
		{
			OFFSET 0.059663 0.006917 -0.409095
			CHANNELS 3 Xrotation Yrotation Zrotation
			JOINT Foot.L
			{
				OFFSET -0.041235 0.031241 -0.433553
				CHANNELS 3 Xrotation Yrotation Zrotation
				JOINT Toe.L
				{
					OFFSET 0.047282 -0.125225 -0.063823
					CHANNELS 3 Xrotation Yrotation Zrotation
					End Site
					{
						OFFSET 0.000000 0.050000 0.000000
					}
				}
			}
		}
	}
	JOINT Thigh.R
	{
		OFFSET -0.059231 0.021590 -0.105663
		CHANNELS 3 Xrotation Yrotation Zrotation
		JOINT Shin.R
		{
			OFFSET -0.048775 0.014657 -0.390692
			CHANNELS 3 Xrotation Yrotation Zrotation
			JOINT Foot.R
			{
				OFFSET 0.013798 0.019609 -0.442543
				CHANNELS 3 Xrotation Yrotation Zrotation
				JOINT Toe.R
				{
					OFFSET -0.039039 -0.126096 -0.063712
					CHANNELS 3 Xrotation Yrotation Zrotation
					End Site
					{
						OFFSET 0.000000 0.050000 0.000000
					}
				}
			}
		}
	}
	JOINT Spine
	{
		OFFSET -0.002472 0.026463 0.111778
		CHANNELS 3 Xrotation Yrotation Zrotation
		JOINT Spine.2
		{
			OFFSET 0.008540 0.006148 0.138368
			CHANNELS 3 Xrotation Yrotation Zrotation
			JOINT Chest
			{
				OFFSET -0.010634 -0.022415 0.055106
				CHANNELS 3 Xrotation Yrotation Zrotation
				JOINT Neck
				{
					OFFSET -0.011864 0.025273 0.167044
					CHANNELS 3 Xrotation Yrotation Zrotation
					JOINT Head
					{
						OFFSET 0.025043 -0.020581 0.167445
						CHANNELS 3 Xrotation Yrotation Zrotation
						End Site
						{
							OFFSET 0.000000 0.050000 0.000000
						}
					}
				}
				JOINT Clavicle.L
				{
					OFFSET 0.047106 0.004519 0.086043
					CHANNELS 3 Xrotation Yrotation Zrotation
					JOINT UpperArm.L
					{
						OFFSET 0.125843 0.013217 0.057524
						CHANNELS 3 Xrotation Yrotation Zrotation
						JOINT ForeArm.L
						{
							OFFSET 0.268411 0.042112 -0.074763
							CHANNELS 3 Xrotation Yrotation Zrotation
							JOINT Hand.L
							{
								OFFSET 0.271502 0.001077 0.021891
								CHANNELS 3 Xrotation Yrotation Zrotation
								JOINT Thumb1.L
								{
									OFFSET 0.154611 0.000474 0.009644
									CHANNELS 3 Xrotation Yrotation Zrotation
									JOINT Thumb2.L
									{
										OFFSET 0.029903 0.000119 0.002411
										CHANNELS 3 Xrotation Yrotation Zrotation
										End Site
										{
											OFFSET 0.024919 0.000099 0.002009
										}
									}
								}
								JOINT Index1.L
								{
									OFFSET 0.137611 0.000474 0.009644
									CHANNELS 3 Xrotation Yrotation Zrotation
									JOINT Index2.L
									{
										OFFSET 0.029903 0.000119 0.002411
										CHANNELS 3 Xrotation Yrotation Zrotation
										JOINT Index3.L
										{
											OFFSET 0.021929 0.000087 0.001768
											CHANNELS 3 Xrotation Yrotation Zrotation
											End Site
											{
												OFFSET 0.017942 0.000071 0.001447
											}
										}
									}
								}
								JOINT Middle1.L
								{
									OFFSET 0.119611 0.000474 0.009644
									CHANNELS 3 Xrotation Yrotation Zrotation
									JOINT Middle2.L
									{
										OFFSET 0.030899 0.000123 0.002491
										CHANNELS 3 Xrotation Yrotation Zrotation
										JOINT Middle3.L
										{
											OFFSET 0.021929 0.000087 0.001768
											CHANNELS 3 Xrotation Yrotation Zrotation
											End Site
											{
												OFFSET 0.017942 0.000071 0.001447
											}
										}
									}
								}
								JOINT Ring1.L
								{
									OFFSET 0.101611 0.000474 0.009644
									CHANNELS 3 Xrotation Yrotation Zrotation
									JOINT Ring2.L
									{
										OFFSET 0.028906 0.000115 0.002331
										CHANNELS 3 Xrotation Yrotation Zrotation
										JOINT Ring3.L
										{
											OFFSET 0.019935 0.000079 0.001607
											CHANNELS 3 Xrotation Yrotation Zrotation
											End Site
											{
												OFFSET 0.016945 0.000067 0.001366
											}
										}
									}
								}
								JOINT Pinky1.L
								{
									OFFSET 0.085611 0.000474 0.009644
									CHANNELS 3 Xrotation Yrotation Zrotation
									JOINT Pinky2.L
									{
										OFFSET 0.023922 0.000095 0.001929
										CHANNELS 3 Xrotation Yrotation Zrotation
										JOINT Pinky3.L
										{
											OFFSET 0.016945 0.000067 0.001366
											CHANNELS 3 Xrotation Yrotation Zrotation
											End Site
											{
												OFFSET 0.013955 0.000055 0.001125
											}
										}
									}
								}
							}
						}
					}
				}
				JOINT Clavicle.R
				{
					OFFSET -0.047666 0.010578 0.085170
					CHANNELS 3 Xrotation Yrotation Zrotation
					JOINT UpperArm.R
					{
						OFFSET -0.109157 0.009559 0.053818
						CHANNELS 3 Xrotation Yrotation Zrotation
						JOINT ForeArm.R
						{
							OFFSET -0.286534 0.027176 -0.039770
							CHANNELS 3 Xrotation Yrotation Zrotation
							JOINT Hand.R
							{
								OFFSET -0.267855 0.014434 -0.005290
								CHANNELS 3 Xrotation Yrotation Zrotation
								JOINT Thumb1.R
								{
									OFFSET -0.154803 0.006456 -0.002366
									CHANNELS 3 Xrotation Yrotation Zrotation
									JOINT Thumb2.R
									{
										OFFSET -0.029951 0.001614 -0.000591
										CHANNELS 3 Xrotation Yrotation Zrotation
										End Site
										{
											OFFSET -0.024959 0.001345 -0.000493
										}
									}
								}
								JOINT Index1.R
								{
									OFFSET -0.137803 0.006456 -0.002366
									CHANNELS 3 Xrotation Yrotation Zrotation
									JOINT Index2.R
									{
										OFFSET -0.029951 0.001614 -0.000591
										CHANNELS 3 Xrotation Yrotation Zrotation
										JOINT Index3.R
										{
											OFFSET -0.021964 0.001184 -0.000434
											CHANNELS 3 Xrotation Yrotation Zrotation
											End Site
											{
												OFFSET -0.017970 0.000968 -0.000355
											}
										}
									}
								}
								JOINT Middle1.R
								{
									OFFSET -0.119803 0.006456 -0.002366
									CHANNELS 3 Xrotation Yrotation Zrotation
									JOINT Middle2.R
									{
										OFFSET -0.030949 0.001668 -0.000611
										CHANNELS 3 Xrotation Yrotation Zrotation
										JOINT Middle3.R
										{
											OFFSET -0.021964 0.001184 -0.000434
											CHANNELS 3 Xrotation Yrotation Zrotation
											End Site
											{
												OFFSET -0.017970 0.000968 -0.000355
											}
										}
									}
								}
								JOINT Ring1.R
								{
									OFFSET -0.101803 0.006456 -0.002366
									CHANNELS 3 Xrotation Yrotation Zrotation
									JOINT Ring2.R
									{
										OFFSET -0.028952 0.001560 -0.000572
										CHANNELS 3 Xrotation Yrotation Zrotation
										JOINT Ring3.R
										{
											OFFSET -0.019967 0.001076 -0.000394
											CHANNELS 3 Xrotation Yrotation Zrotation
											End Site
											{
												OFFSET -0.016972 0.000915 -0.000335
											}
										}
									}
								}
								JOINT Pinky1.R
								{
									OFFSET -0.085803 0.006456 -0.002366
									CHANNELS 3 Xrotation Yrotation Zrotation
									JOINT Pinky2.R
									{
										OFFSET -0.023961 0.001291 -0.000473
										CHANNELS 3 Xrotation Yrotation Zrotation
										JOINT Pinky3.R
										{
											OFFSET -0.016972 0.000915 -0.000335
											CHANNELS 3 Xrotation Yrotation Zrotation
											End Site
											{
												OFFSET -0.013977 0.000753 -0.000276
											}
										}
									}
								}
							}
						}
					}
				}
			}
		}
	}
}
MOTION
Frames: 7
Frame Time: 0.04166667
-0.000875 -0.345808 1.132152 -5.611331 3.541279 -13.875242 -26.863751 -3.305589 -3.679800 43.664160 5.606307 -3.071125 6.269608 2.080272 9.534752 -1.295801 -3.020289 0.792608 -3.173884 -6.065563 -0.876466 24.139093 -2.868407 1.222174 -8.957154 2.532459 -3.734192 -3.109792 0.921029 -0.740875 14.396407 4.497999 10.251774 -5.526661 -3.306826 -1.724821 3.661031 -1.953237 4.809418 11.943596 1.715103 10.506012 -8.483551 -2.100254 -3.398705 0.463573 0.009986 -1.779318 -2.439117 5.305670 11.501270 1.428265 2.768696 -14.283446 18.661889 -10.454857 -1.268613 0.000000 0.000000 0.000000 0.000000 0.000000 0.000000 0.000000 0.000000 0.000000 0.000000 0.000000 0.000000 0.000000 0.000000 0.000000 0.000000 0.000000 0.000000 0.000000 0.000000 0.000000 0.000000 0.000000 0.000000 0.000000 0.000000 0.000000 0.000000 0.000000 0.000000 0.000000 0.000000 0.000000 0.000000 0.000000 0.000000 0.000000 0.000000 0.000000 0.000000 0.000000 0.000000 -7.605849 -3.259757 12.851790 14.222735 -44.507735 32.254478 -23.070086 12.854994 120.859632 -21.150152 20.571538 11.322053 0.000000 0.000000 0.000000 0.000000 0.000000 0.000000 0.000000 0.000000 0.000000 0.000000 0.000000 0.000000 0.000000 0.000000 0.000000 0.000000 0.000000 0.000000 0.000000 0.000000 0.000000 0.000000 0.000000 0.000000 0.000000 0.000000 0.000000 0.000000 0.000000 0.000000 0.000000 0.000000 0.000000 0.000000 0.000000 0.000000 0.000000 0.000000 0.000000 0.000000 0.000000 0.000000
-0.009119 -0.356858 1.133802 -6.683161 5.780880 -14.880997 -29.742395 -5.234009 -5.035327 47.802217 4.535104 -3.062725 7.331892 2.153192 10.302868 -1.176553 -2.687819 -0.050229 2.178185 -7.932732 -1.862368 17.573537 -2.958477 2.320672 -9.068122 2.048356 -1.566862 -3.547995 0.675384 -1.387386 14.391525 5.270808 12.196778 -5.740351 -4.732759 -2.028273 3.791515 -3.119155 5.593422 13.108048 0.800157 11.429789 -8.539950 -2.766618 -4.195244 0.203939 -1.553507 -1.777572 -2.824769 4.554531 11.282309 -0.201903 3.160621 -15.197306 17.948571 -12.417510 -1.334621 0.000000 0.000000 0.000000 0.000000 0.000000 0.000000 0.000000 0.000000 0.000000 0.000000 0.000000 0.000000 0.000000 0.000000 0.000000 0.000000 0.000000 0.000000 0.000000 0.000000 0.000000 0.000000 0.000000 0.000000 0.000000 0.000000 0.000000 0.000000 0.000000 0.000000 0.000000 0.000000 0.000000 0.000000 0.000000 0.000000 0.000000 0.000000 0.000000 0.000000 0.000000 0.000000 -7.253175 -3.844799 13.309496 15.596562 -45.016228 33.176180 -20.793154 14.091446 119.842511 -21.949753 19.403416 12.191326 0.000000 0.000000 0.000000 0.000000 0.000000 0.000000 0.000000 0.000000 0.000000 0.000000 0.000000 0.000000 0.000000 0.000000 0.000000 0.000000 0.000000 0.000000 0.000000 0.000000 0.000000 0.000000 0.000000 0.000000 0.000000 0.000000 0.000000 0.000000 0.000000 0.000000 0.000000 0.000000 0.000000 0.000000 0.000000 0.000000 0.000000 0.000000 0.000000 0.000000 0.000000 0.000000
-0.017155 -0.371451 1.136879 -7.765460 7.574623 -16.347278 -30.189630 -5.741814 -6.179029 48.000302 2.825138 -3.337515 6.671127 1.791999 11.879705 -0.574294 -2.341895 -0.428576 5.186505 -9.182953 -2.120886 14.589223 -3.160972 3.004380 -7.969192 1.002587 0.074222 -3.699476 0.203932 -2.095740 13.591031 6.313033 13.603506 -5.004791 -6.001929 -1.838011 3.472892 -4.184887 6.427976 14.833130 0.359872 12.683483 -8.319992 -3.202065 -4.974564 0.000091 -2.853904 -2.088036 -3.234311 3.414369 10.368583 -2.315001 3.440908 -15.845248 18.711308 -13.242978 -1.308136 0.000000 0.000000 0.000000 0.000000 0.000000 0.000000 0.000000 0.000000 0.000000 0.000000 0.000000 0.000000 0.000000 0.000000 0.000000 0.000000 0.000000 0.000000 0.000000 0.000000 0.000000 0.000000 0.000000 0.000000 0.000000 0.000000 0.000000 0.000000 0.000000 0.000000 0.000000 0.000000 0.000000 0.000000 0.000000 0.000000 0.000000 0.000000 0.000000 0.000000 0.000000 0.000000 -6.510014 -4.820418 14.149540 17.318569 -45.696886 34.234306 -18.237628 15.321460 118.845462 -22.289068 18.597811 13.230117 0.000000 0.000000 0.000000 0.000000 0.000000 0.000000 0.000000 0.000000 0.000000 0.000000 0.000000 0.000000 0.000000 0.000000 0.000000 0.000000 0.000000 0.000000 0.000000 0.000000 0.000000 0.000000 0.000000 0.000000 0.000000 0.000000 0.000000 0.000000 0.000000 0.000000 0.000000 0.000000 0.000000 0.000000 0.000000 0.000000 0.000000 0.000000 0.000000 0.000000 0.000000 0.000000
-0.015312 -0.364008 1.138716 -8.045734 8.059307 -17.026395 -27.475692 -6.115024 -5.591292 45.280538 1.813998 -3.162631 6.149783 1.592852 12.881273 -0.201459 -1.962545 -0.665798 5.781730 -9.227051 -2.272061 15.464088 -3.457504 2.913831 -6.960518 0.144563 1.040188 -3.891908 -0.554783 -2.029937 13.019963 6.574297 13.707937 -4.414859 -6.470764 -1.553086 3.172232 -4.740665 6.691075 15.710852 0.496191 13.541078 -7.702651 -3.375964 -5.353905 -0.109687 -3.663325 -2.968382 -4.006155 2.086269 9.066171 -4.253394 3.207209 -17.127232 19.874324 -12.881245 -1.437288 0.000000 0.000000 0.000000 0.000000 0.000000 0.000000 0.000000 0.000000 0.000000 0.000000 0.000000 0.000000 0.000000 0.000000 0.000000 0.000000 0.000000 0.000000 0.000000 0.000000 0.000000 0.000000 0.000000 0.000000 0.000000 0.000000 0.000000 0.000000 0.000000 0.000000 0.000000 0.000000 0.000000 0.000000 0.000000 0.000000 0.000000 0.000000 0.000000 0.000000 0.000000 0.000000 -5.571080 -5.384874 14.688407 18.350387 -45.977005 33.662001 -16.315532 17.023563 116.701006 -20.819051 17.278192 13.125896 0.000000 0.000000 0.000000 0.000000 0.000000 0.000000 0.000000 0.000000 0.000000 0.000000 0.000000 0.000000 0.000000 0.000000 0.000000 0.000000 0.000000 0.000000 0.000000 0.000000 0.000000 0.000000 0.000000 0.000000 0.000000 0.000000 0.000000 0.000000 0.000000 0.000000 0.000000 0.000000 0.000000 0.000000 0.000000 0.000000 0.000000 0.000000 0.000000 0.000000 0.000000 0.000000
-0.013364 -0.336326 1.138639 -7.525457 7.524637 -16.178863 -23.294725 -5.467923 -3.870664 40.903282 1.446633 -3.085705 5.564492 1.281077 13.122078 0.105946 -1.572743 -0.609282 3.593246 -8.202375 -2.071020 20.131774 -3.611898 2.222664 -5.001785 -0.984989 1.150148 -4.020418 -0.875919 -1.471570 12.699420 6.173325 12.641865 -4.400819 -6.196363 -1.207199 3.174665 -4.649690 6.397229 15.631399 0.848502 13.647567 -7.262114 -3.557232 -5.523322 -0.572004 -3.757666 -3.906392 -4.758219 0.781772 7.380845 -6.438031 2.879667 -19.779667 20.785427 -12.115780 -2.450803 0.000000 0.000000 0.000000 0.000000 0.000000 0.000000 0.000000 0.000000 0.000000 0.000000 0.000000 0.000000 0.000000 0.000000 0.000000 0.000000 0.000000 0.000000 0.000000 0.000000 0.000000 0.000000 0.000000 0.000000 0.000000 0.000000 0.000000 0.000000 0.000000 0.000000 0.000000 0.000000 0.000000 0.000000 0.000000 0.000000 0.000000 0.000000 0.000000 0.000000 0.000000 0.000000 -4.872235 -5.467047 14.529599 18.850631 -46.156492 31.451058 -14.512445 18.167948 113.561216 -19.340397 15.776948 13.037679 0.000000 0.000000 0.000000 0.000000 0.000000 0.000000 0.000000 0.000000 0.000000 0.000000 0.000000 0.000000 0.000000 0.000000 0.000000 0.000000 0.000000 0.000000 0.000000 0.000000 0.000000 0.000000 0.000000 0.000000 0.000000 0.000000 0.000000 0.000000 0.000000 0.000000 0.000000 0.000000 0.000000 0.000000 0.000000 0.000000 0.000000 0.000000 0.000000 0.000000 0.000000 0.000000
-0.009491 -0.321885 1.135512 -6.751577 5.674137 -13.943211 -18.950625 -3.637435 -1.860592 35.509566 1.869446 -3.639078 3.824586 0.432467 12.808014 0.216921 -1.170676 -0.385309 -2.032794 -6.083210 -1.502510 29.393733 -3.883580 1.159022 -2.942305 -2.622261 0.703170 -3.835640 -0.753554 -0.598908 12.872870 4.880388 10.368037 -4.637992 -5.011060 -0.805032 3.363932 -3.849963 5.617876 14.943688 1.638774 12.398819 -7.013933 -3.904063 -4.628861 -1.356715 -2.907708 -5.162021 -6.177549 -0.476662 5.003055 -9.054918 1.796421 -24.229611 21.017861 -10.804635 -3.758269 0.000000 0.000000 0.000000 0.000000 0.000000 0.000000 0.000000 0.000000 0.000000 0.000000 0.000000 0.000000 0.000000 0.000000 0.000000 0.000000 0.000000 0.000000 0.000000 0.000000 0.000000 0.000000 0.000000 0.000000 0.000000 0.000000 0.000000 0.000000 0.000000 0.000000 0.000000 0.000000 0.000000 0.000000 0.000000 0.000000 0.000000 0.000000 0.000000 0.000000 0.000000 0.000000 -4.074654 -4.826360 13.966973 17.947420 -45.381108 26.916914 -12.303832 19.153119 108.876200 -17.791161 14.578526 12.485933 0.000000 0.000000 0.000000 0.000000 0.000000 0.000000 0.000000 0.000000 0.000000 0.000000 0.000000 0.000000 0.000000 0.000000 0.000000 0.000000 0.000000 0.000000 0.000000 0.000000 0.000000 0.000000 0.000000 0.000000 0.000000 0.000000 0.000000 0.000000 0.000000 0.000000 0.000000 0.000000 0.000000 0.000000 0.000000 0.000000 0.000000 0.000000 0.000000 0.000000 0.000000 0.000000
0.006731 -0.313611 1.128892 -6.698721 1.827439 -8.894549 -14.225192 0.719982 -0.389208 28.877942 3.197785 -5.186412 -1.147251 -3.154355 12.595741 0.096716 -1.209380 0.431783 -12.888945 -1.541584 -0.667546 48.387083 -5.403072 0.117776 4.671186 -4.336827 -3.334152 -2.966236 -1.112398 0.162057 13.944775 3.956676 6.609438 -4.876418 -3.229365 -0.496666 3.674713 -2.379641 4.077919 12.971265 2.601877 8.825321 -7.861602 -4.662209 -2.744792 -2.435050 -0.843794 -6.115828 -9.346249 -1.831027 2.088234 -12.496999 -0.618059 -31.627521 20.534740 -9.494813 -4.669865 0.000000 0.000000 0.000000 0.000000 0.000000 0.000000 0.000000 0.000000 0.000000 0.000000 0.000000 0.000000 0.000000 0.000000 0.000000 0.000000 0.000000 0.000000 0.000000 0.000000 0.000000 0.000000 0.000000 0.000000 0.000000 0.000000 0.000000 0.000000 0.000000 0.000000 0.000000 0.000000 0.000000 0.000000 0.000000 0.000000 0.000000 0.000000 0.000000 0.000000 0.000000 0.000000 -2.960381 -3.828530 12.355189 15.222938 -42.460325 20.034724 -10.054845 18.570475 102.608027 -15.438156 13.131724 10.970807 0.000000 0.000000 0.000000 0.000000 0.000000 0.000000 0.000000 0.000000 0.000000 0.000000 0.000000 0.000000 0.000000 0.000000 0.000000 0.000000 0.000000 0.000000 0.000000 0.000000 0.000000 0.000000 0.000000 0.000000 0.000000 0.000000 0.000000 0.000000 0.000000 0.000000 0.000000 0.000000 0.000000 0.000000 0.000000 0.000000 0.000000 0.000000 0.000000 0.000000 0.000000 0.000000
